<svg xmlns="http://www.w3.org/2000/svg"><symbol id="search" viewBox="0 0 24 24" fill="none" stroke="currentColor" stroke-width="2" stroke-linecap="round" stroke-linejoin="round">
  <circle cx="11" cy="11" r="8" />
  <line x1="21" y1="21" x2="16.65" y2="16.65" />
</symbol><symbol id="shopping-cart" viewBox="0 0 24 24" fill="none" stroke="currentColor" stroke-width="2" stroke-linecap="round" stroke-linejoin="round">
  <circle cx="9" cy="21" r="1" />
  <circle cx="20" cy="21" r="1" />
  <path d="M1 1h4l2.68 13.39a2 2 0 0 0 2 1.61h9.72a2 2 0 0 0 2-1.61L23 6H6" />
</symbol><symbol id="home" viewBox="0 0 24 24" fill="none" stroke="currentColor" stroke-width="2" stroke-linecap="round" stroke-linejoin="round">
  <path d="M3 9l9-7 9 7v11a2 2 0 0 1-2 2H5a2 2 0 0 1-2-2z" />
  <polyline points="9 22 9 12 15 12 15 22" />
</symbol><symbol id="grid" viewBox="0 0 24 24" fill="none" stroke="currentColor" stroke-width="2" stroke-linecap="round" stroke-linejoin="round">
  <rect x="3" y="3" width="7" height="7" />
  <rect x="14" y="3" width="7" height="7" />
  <rect x="14" y="14" width="7" height="7" />
  <rect x="3" y="14" width="7" height="7" />
</symbol><symbol id="tag" viewBox="0 0 24 24" fill="none" stroke="currentColor" stroke-width="2" stroke-linecap="round" stroke-linejoin="round">
  <path d="M20.59 13.41l-7.17 7.17a2 2 0 0 1-2.83 0L2 12V2h10l8.59 8.59a2 2 0 0 1 0 2.82z" />
  <line x1="7" y1="7" x2="7.01" y2="7" />
</symbol><symbol id="help-circle" viewBox="0 0 24 24" fill="none" stroke="currentColor" stroke-width="2" stroke-linecap="round" stroke-linejoin="round">
  <circle cx="12" cy="12" r="10" />
  <path d="M9.09 9a3 3 0 0 1 5.83 1c0 2-3 3-3 3" />
  <line x1="12" y1="17" x2="12.01" y2="17" />
</symbol><symbol id="user" viewBox="0 0 24 24" fill="none" stroke="currentColor" stroke-width="2" stroke-linecap="round" stroke-linejoin="round">
  <path d="M20 21v-2a4 4 0 0 0-4-4H8a4 4 0 0 0-4 4v2" />
  <circle cx="12" cy="7" r="4" />
</symbol><symbol id="arrow-right" viewBox="0 0 24 24" fill="none" stroke="currentColor" stroke-width="2" stroke-linecap="round" stroke-linejoin="round">
  <line x1="5" y1="12" x2="19" y2="12" />
  <polyline points="12 5 19 12 12 19" />
</symbol><symbol id="chevron-left" viewBox="0 0 24 24" fill="none" stroke="currentColor" stroke-width="2" stroke-linecap="round" stroke-linejoin="round">
  <polyline points="15 18 9 12 15 6" />
</symbol><symbol id="chevron-right" viewBox="0 0 24 24" fill="none" stroke="currentColor" stroke-width="2" stroke-linecap="round" stroke-linejoin="round">
  <polyline points="9 18 15 12 9 6" />
</symbol><symbol id="filter" viewBox="0 0 24 24" fill="none" stroke="currentColor" stroke-width="2" stroke-linecap="round" stroke-linejoin="round">
  <polygon points="22 3 2 3 10 12.46 10 19 14 21 14 12.46 22 3" />
</symbol><symbol id="x" viewBox="0 0 24 24" fill="none" stroke="currentColor" stroke-width="2" stroke-linecap="round" stroke-linejoin="round">
  <line x1="18" y1="6" x2="6" y2="18" />
  <line x1="6" y1="6" x2="18" y2="18" />
</symbol><symbol id="eye" viewBox="0 0 24 24" fill="none" stroke="currentColor" stroke-width="2" stroke-linecap="round" stroke-linejoin="round">
  <path d="M2 12s3.6-7 10-7 10 7 10 7-3.6 7-10 7S2 12 2 12z" />
  <circle cx="12" cy="12" r="3" />
</symbol><symbol id="eye-off" viewBox="0 0 24 24" fill="none" stroke="currentColor" stroke-width="2" stroke-linecap="round" stroke-linejoin="round">
  <path d="M17.94 17.94A10.94 10.94 0 0 1 12 20C5.6 20 2 12 2 12a20.4 20.4 0 0 1 5.06-6.94M9.9 4.24A10.8 10.8 0 0 1 12 4c6.4 0 10 8 10 8a20.6 20.6 0 0 1-2.12 3.19" />
  <line x1="2" y1="2" x2="22" y2="22" />
  <path d="M10.59 10.59a2 2 0 0 0 2.82 2.82" />
</symbol><symbol id="minus" viewBox="0 0 24 24" fill="none" stroke="currentColor" stroke-width="2" stroke-linecap="round" stroke-linejoin="round">
  <line x1="5" y1="12" x2="19" y2="12" />
</symbol><symbol id="plus" viewBox="0 0 24 24" fill="none" stroke="currentColor" stroke-width="2" stroke-linecap="round" stroke-linejoin="round">
  <line x1="12" y1="5" x2="12" y2="19" />
  <line x1="5" y1="12" x2="19" y2="12" />
</symbol><symbol id="lock" viewBox="0 0 24 24" fill="none" stroke="currentColor" stroke-width="2" stroke-linecap="round" stroke-linejoin="round">
  <rect x="3" y="11" width="18" height="11" rx="2" />
  <path d="M7 11V7a5 5 0 0 1 10 0v4" />
</symbol><symbol id="check" viewBox="0 0 24 24" fill="none" stroke="currentColor" stroke-width="2" stroke-linecap="round" stroke-linejoin="round">
  <polyline points="20 6 9 17 4 12" />
</symbol><symbol id="chevron-down" viewBox="0 0 24 24" fill="none" stroke="currentColor" stroke-width="2" stroke-linecap="round" stroke-linejoin="round">
  <polyline points="6 9 12 15 18 9" />
</symbol><symbol id="arrow-left" viewBox="0 0 24 24" fill="none" stroke="currentColor" stroke-width="2" stroke-linecap="round" stroke-linejoin="round">
  <line x1="19" y1="12" x2="5" y2="12" />
  <polyline points="12 19 5 12 12 5" />
</symbol><symbol id="package" viewBox="0 0 24 24" fill="none" stroke="currentColor" stroke-width="2" stroke-linecap="round" stroke-linejoin="round">
  <path d="m12 3 9 5-9 5-9-5 9-5Z" />
  <path d="m3 8 9 5 9-5" />
  <path d="M12 13v8" />
  <path d="m3 8 0 8 9 5 9-5V8" />
</symbol><symbol id="message-circle" viewBox="0 0 24 24" fill="none" stroke="currentColor" stroke-width="2" stroke-linecap="round" stroke-linejoin="round"><path d="M21 11.5a8.5 8.5 0 0 1-8.5 8.5 9.5 9.5 0 0 1-4-.9L3 21l1.9-5.5a9.5 9.5 0 0 1-.9-4A8.5 8.5 0 0 1 12.5 3h.5a8.5 8.5 0 0 1 8 8v.5z"/></symbol><symbol id="image" viewBox="0 0 24 24" fill="none" stroke="currentColor" stroke-width="2" stroke-linecap="round" stroke-linejoin="round"><rect x="3" y="3" width="18" height="18" rx="2"/><circle cx="8.5" cy="8.5" r="1.5"/><path d="m21 15-5-5L5 21"/></symbol><symbol id="send" viewBox="0 0 24 24" fill="none" stroke="currentColor" stroke-width="2" stroke-linecap="round" stroke-linejoin="round"><path d="m22 2-7 20-4-9-9-4 20-7zM22 2 11 13"/></symbol></svg>
